<svg width="50" height="44" viewBox="0 0 50 44" fill="none" xmlns="http://www.w3.org/2000/svg">
<path d="M40 26C40 27.6569 38.6569 29 37 29C35.3431 29 34 27.6569 34 26C34 24.3431 35.3431 23 37 23C38.6569 23 40 24.3431 40 26Z" fill="white"/>
<path fill-rule="evenodd" clip-rule="evenodd" d="M4.58579 4.58579C4.96086 4.21071 5.46957 4 6 4H40C41.1046 4 42 3.10457 42 2C42 0.89543 41.1046 0 40 0H6C4.4087 0 2.88258 0.632141 1.75736 1.75736C0.632141 2.88258 0 4.4087 0 6V38C0 39.5913 0.632141 41.1174 1.75736 42.2426C2.88258 43.3679 4.4087 44 6 44H46C47.0609 44 48.0783 43.5786 48.8284 42.8284C49.5786 42.0783 50 41.0609 50 40V12C50 10.9391 49.5786 9.92172 48.8284 9.17157C48.0783 8.42143 47.0609 8 46 8H6C5.46957 8 4.96086 7.78929 4.58579 7.41421C4.21071 7.03914 4 6.53043 4 6C4 5.46957 4.21071 4.96086 4.58579 4.58579ZM4 38V11.6569C4.63641 11.8819 5.31211 12 6 12H46V40H6C5.46957 40 4.96086 39.7893 4.58579 39.4142C4.21071 39.0391 4 38.5304 4 38Z" fill="white"/>
</svg>
